<svg xmlns="http://www.w3.org/2000/svg" viewBox="0 0 295 291.36"><defs><style>.cls-1{fill:#ecd4fa;}.cls-2{fill:#24292e;}</style></defs><title>Asset 24</title><g id="Layer_2" data-name="Layer 2"><g id="Layer_1-2" data-name="Layer 1"><rect class="cls-1" x="171.29" y="131.41" width="104.68" height="76.13"/><rect class="cls-1" x="23.79" y="60.04" width="19.03" height="9.52"/><rect class="cls-1" x="118.95" y="69.55" width="19.03" height="9.52"/><rect class="cls-1" x="23.79" y="136.17" width="19.03" height="9.52"/><rect class="cls-1" x="118.95" y="145.68" width="19.03" height="9.52"/><rect class="cls-1" x="23.79" y="212.3" width="19.03" height="9.52"/><rect class="cls-1" x="118.95" y="221.81" width="19.03" height="9.52"/><rect class="cls-2" x="19.03" y="212.3" width="9.52" height="9.52"/><rect class="cls-2" x="38.06" y="212.3" width="9.52" height="9.52"/><rect class="cls-2" x="133.23" y="221.81" width="9.52" height="9.52"/><rect class="cls-2" x="114.19" y="221.81" width="9.52" height="9.52"/><rect class="cls-2" x="19.03" y="136.17" width="9.52" height="9.52"/><rect class="cls-2" x="38.06" y="136.17" width="9.52" height="9.52"/><rect class="cls-2" x="133.23" y="145.68" width="9.52" height="9.52"/><rect class="cls-2" x="114.19" y="145.68" width="9.52" height="9.52"/><rect class="cls-2" x="19.03" y="60.04" width="9.52" height="9.52"/><rect class="cls-2" x="38.06" y="60.04" width="9.52" height="9.52"/><rect class="cls-2" x="133.23" y="69.55" width="9.52" height="9.52"/><rect class="cls-2" x="114.19" y="69.55" width="9.52" height="9.52"/><path class="cls-2" d="M280.73,64.8H232l-19,9.51H161.77v-19A14.28,14.28,0,0,0,147.5,41H14.27A14.29,14.29,0,0,0,0,55.28V83.83A14.29,14.29,0,0,0,14.27,98.1H19v19H14.27A14.3,14.3,0,0,0,0,131.41V160a14.29,14.29,0,0,0,14.27,14.27H19v19H14.27A14.3,14.3,0,0,0,0,207.54v28.55a14.29,14.29,0,0,0,14.27,14.27H147.5a14.28,14.28,0,0,0,14.27-14.27v-9.52h119A14.29,14.29,0,0,0,295,212.3V79.07A14.29,14.29,0,0,0,280.73,64.8ZM9.52,83.83V55.28a4.76,4.76,0,0,1,4.75-4.76H147.5a4.76,4.76,0,0,1,4.76,4.76V83.83a4.76,4.76,0,0,1-4.76,4.76H14.27a4.76,4.76,0,0,1-4.75-4.76Zm19,14.27H133.23v19H28.55ZM9.52,160V131.41a4.76,4.76,0,0,1,4.75-4.76H147.5a4.76,4.76,0,0,1,4.76,4.76V160a4.76,4.76,0,0,1-4.76,4.76H14.27A4.76,4.76,0,0,1,9.52,160Zm19,14.27H133.23v19H28.55Zm123.71,61.86a4.76,4.76,0,0,1-4.76,4.75H14.27a4.75,4.75,0,0,1-4.75-4.75V207.54a4.76,4.76,0,0,1,4.75-4.76H147.5a4.76,4.76,0,0,1,4.76,4.76Zm128.47-19h-119v-9.51a14.29,14.29,0,0,0-14.27-14.28h-4.76v-19h4.76A14.28,14.28,0,0,0,161.77,160V131.41a14.29,14.29,0,0,0-14.27-14.28h-4.76v-19h4.76a14.28,14.28,0,0,0,14.27-14.27h53.47l19-9.52h46.46a4.76,4.76,0,0,1,4.75,4.76v23.79H171.29v9.52H285.48V212.3a4.75,4.75,0,0,1-4.75,4.75Z"/><rect class="cls-2" x="228.39" y="83.83" width="47.58" height="9.52"/><path class="cls-2" d="M209.35,41h80.89V31.49h-90.4v6.57L177.17,26.73,199.84,15.4V22h71.37V12.46H209.35V0L155.89,26.73l53.46,26.73Z"/><rect class="cls-2" x="280.73" y="12.46" width="9.52" height="9.52"/><path class="cls-2" d="M237.9,250.36H171.29v9.52h76.13V253.3l22.67,11.33L247.42,276v-6.58h-57.1v9.52H237.9v12.45l53.46-26.73L237.9,237.9Z"/><rect class="cls-2" x="171.29" y="269.39" width="9.52" height="9.52"/><path class="cls-2" d="M209.36,182.48l-10.91-10.91-6.73,6.72,17.64,17.64,46.18-46.18L248.81,143Z"/></g></g></svg>