<?xml version="1.0" encoding="UTF-8"?>
<svg width="225px" height="55px" viewBox="0 0 225 55" version="1.1" xmlns="http://www.w3.org/2000/svg" xmlns:xlink="http://www.w3.org/1999/xlink">
    <!-- Generator: Sketch 49.1 (51147) - http://www.bohemiancoding.com/sketch -->
    <title>Page 1</title>
    <desc>Created with Sketch.</desc>
    <defs>
        <polygon id="path-1" points="7.0694864e-05 0.0142857143 233.840937 0.0142857143 233.840937 55 7.0694864e-05 55"></polygon>
    </defs>
    <g id="Page-1" stroke="none" stroke-width="1" fill="none" fill-rule="evenodd">
        <g id="Web" transform="translate(-40.000000, -19.000000)">
            <g id="Page-1" transform="translate(40.000000, 19.000000)">
                <polygon id="Fill-1" fill="#000000" points="57 40.8395971 62.1640295 14 70.7213693 33.3903973 79.352538 14 84 40.8395971 80.1639511 40.8395971 77.6556478 25.791345 70.5001176 42 63.4179461 25.7538818 60.8360489 40.8395971"></polygon>
                <g id="Group-18">
                    <mask id="mask-2" fill="white">
                        <use xlink:href="#path-1"></use>
                    </mask>
                    <g id="Clip-3"></g>
                    <path d="M88.1680423,40.8192857 L91.7909184,40.8192857 L91.7909184,25.0942857 L88.1680423,25.0942857 L88.1680423,40.8192857 Z M89.979716,16.2419048 C91.310429,16.2419048 92.3086405,17.2504762 92.3086405,18.5952381 C92.3086405,19.9397619 91.310429,20.9483333 89.979716,20.9483333 C88.6487674,20.9483333 87.6505559,19.9397619 87.6505559,18.5952381 C87.6505559,17.2504762 88.6487674,16.2419048 89.979716,16.2419048 Z" id="Fill-2" fill="#000000" mask="url(#mask-2)"></path>
                    <path d="M108.426009,29.9126429 C106.762559,28.2693095 105.13587,27.9705 104.026903,27.9705 C102.326456,27.9705 101.254251,28.6800238 100.588776,29.3521667 C99.9235378,30.0247857 99.2580634,31.2197857 99.2580634,32.9752619 C99.2580634,34.8057381 99.9605347,36.0383571 100.66277,36.747881 C101.475997,37.5324048 102.622196,38.017881 103.952909,38.017881 C105.43161,38.017881 107.169054,37.4202619 108.426009,36.0007381 L108.426009,40.0721667 C107.538789,40.6324048 106.097085,41.3047857 103.694166,41.3047857 C101.106498,41.3047857 99.2580634,40.557881 97.7793625,38.9890714 C96.6703958,37.8312143 95.5611934,35.9635952 95.5611934,33.0874048 C95.5611934,30.1366905 96.7811511,28.1571667 97.9271148,26.9993095 C99.1470725,25.7666905 101.106498,24.6833571 104.174656,24.6833571 C105.357616,24.6833571 106.762559,24.8700238 108.426009,25.8038333 L108.426009,29.9126429 Z" id="Fill-4" fill="#000000" mask="url(#mask-2)"></path>
                    <path d="M111.901086,25.0942381 L115.523962,25.0942381 L115.523962,26.5137619 C115.930457,26.0280476 116.521938,25.5051905 117.03966,25.206381 C117.741895,24.7954286 118.444367,24.6832857 119.257593,24.6832857 C120.144814,24.6832857 121.106028,24.8328095 122.10424,25.4304286 L120.625539,28.7547143 C119.812077,28.2318571 119.146838,28.1944762 118.777104,28.1944762 C118.000639,28.1944762 117.224409,28.306381 116.521938,29.0535238 C115.523962,30.1368571 115.523962,31.6306667 115.523962,32.676619 L115.523962,40.8192381 L111.901086,40.8192381 L111.901086,25.0942381 Z" id="Fill-5" fill="#000000" mask="url(#mask-2)"></path>
                    <path d="M135.560371,33.0127619 C135.560371,29.4270476 133.231447,27.970381 130.939519,27.970381 C128.647356,27.970381 126.318431,29.4270476 126.318431,33.0127619 C126.318431,36.0382381 128.092873,38.0177619 130.939519,38.0177619 C133.78593,38.0177619 135.560371,36.0382381 135.560371,33.0127619 M139.257241,32.975381 C139.257241,37.7937143 135.634365,41.3046667 130.939519,41.3046667 C126.244437,41.3046667 122.621797,37.7937143 122.621797,32.975381 C122.621797,28.1196667 126.244437,24.6834762 130.939519,24.6834762 C135.634365,24.6834762 139.257241,28.1196667 139.257241,32.975381" id="Fill-6" fill="#000000" mask="url(#mask-2)"></path>
                    <polygon id="Fill-7" fill="#000000" mask="url(#mask-2)" points="146.650816 13.5900952 146.650816 30.3610476 151.715396 25.0941429 156.521233 25.0941429 149.829964 31.6308095 157.001723 40.8191429 152.417868 40.8191429 147.316291 34.0960476 146.650816 34.7681905 146.650816 40.8191429 143.02794 40.8191429 143.02794 13.5900952"></polygon>
                    <path d="M162.584072,25.0942381 L162.584072,34.0961429 C162.584072,35.0297143 162.621069,36.1128095 163.249546,36.9344762 C163.730036,37.5694762 164.580259,38.0178095 165.615468,38.0178095 C166.65044,38.0178095 167.500664,37.5694762 167.981389,36.9344762 C168.609866,36.1128095 168.646863,35.0297143 168.646863,34.0961429 L168.646863,25.0942381 L172.269504,25.0942381 L172.269504,34.2080476 C172.269504,36.2249524 172.047758,37.9059048 170.606054,39.3625714 C169.201347,40.7818571 167.278918,41.3047143 165.541474,41.3047143 C163.951782,41.3047143 162.029589,40.8192381 160.624882,39.3625714 C159.183178,37.9059048 158.961196,36.2249524 158.961196,34.2080476 L158.961196,25.0942381 L162.584072,25.0942381 Z" id="Fill-8" fill="#000000" mask="url(#mask-2)"></path>
                    <path d="M180.254583,33.0501905 C180.254583,36.3370952 182.361761,38.0178095 184.653689,38.0178095 C187.278353,38.0178095 188.978801,35.7394762 188.978801,33.0128095 C188.978801,30.211381 187.278353,27.9704286 184.653689,27.9704286 C182.361761,27.9704286 180.254583,29.6137619 180.254583,33.0501905 Z M180.476329,26.9244762 C181.95503,24.9820952 183.951453,24.6832857 185.097417,24.6832857 C189.200782,24.6832857 192.675671,27.8209048 192.675671,32.9380476 C192.675671,37.2709048 189.940015,41.3047143 185.134414,41.3047143 C184.025211,41.3047143 182.066021,41.0432857 180.476329,39.1759048 L180.476329,40.8192381 L176.853453,40.8192381 L176.853453,13.5901905 L180.476329,13.5901905 L180.476329,26.9244762 Z" id="Fill-9" fill="#000000" mask="url(#mask-2)"></path>
                    <path d="M206.797488,30.8464048 C206.649736,29.9873571 206.243005,29.2402143 205.688521,28.7173571 C205.207796,28.2692619 204.431567,27.8209286 203.248606,27.8209286 C201.991651,27.8209286 201.178425,28.3437857 200.697935,28.8292619 C200.180213,29.3149762 199.773718,30.062119 199.588733,30.8464048 L206.797488,30.8464048 Z M210.383367,37.2333095 C209.717893,38.4287857 208.756679,39.4745 207.758703,40.1095 C206.501748,40.9311667 204.838298,41.3047381 203.174612,41.3047381 C201.104431,41.3047381 199.403984,40.781881 197.925283,39.2878333 C196.446582,37.7937857 195.633355,35.6273571 195.633355,33.2742619 C195.633355,30.8464048 196.483579,28.4933095 198.110032,26.8125952 C199.403984,25.5049762 201.104431,24.6833095 203.3226,24.6833095 C205.799277,24.6833095 207.388969,25.7666429 208.313186,26.7375952 C210.309373,28.8292619 210.494358,31.7428333 210.494358,33.3864048 L210.494358,33.8345 L199.32999,33.8345 C199.403984,34.9549762 199.884473,36.2249762 200.660938,37.0095 C201.511162,37.8683095 202.546135,38.0178333 203.433355,38.0178333 C204.431567,38.0178333 205.171035,37.7937857 205.910268,37.2333095 C206.538745,36.7478333 207.019234,36.1128333 207.351972,35.5152143 L210.383367,37.2333095 Z" id="Fill-10" fill="#000000" mask="url(#mask-2)"></path>
                    <path d="M221.067011,29.2401905 C220.697277,28.6425714 219.995041,27.8956667 218.849077,27.8956667 C218.331355,27.8956667 217.961857,28.0825714 217.739875,28.306381 C217.555126,28.4932857 217.407138,28.7920952 217.407138,29.1280476 C217.407138,29.5392381 217.592123,29.8006667 217.92486,30.0247143 C218.146606,30.174 218.368352,30.2487619 219.144818,30.6597143 L220.993017,31.5935238 C221.806479,32.0042381 222.582709,32.4151905 223.174189,33.0501905 C224.024413,33.909 224.320153,34.8801905 224.320153,35.9635238 C224.320153,37.3828095 223.802666,38.6154286 222.952443,39.5492381 C221.732485,40.8937619 220.216787,41.3047143 218.590334,41.3047143 C217.592123,41.3047143 216.335168,41.1554286 215.226201,40.296381 C214.338981,39.624 213.599512,38.5409048 213.229778,37.4201905 L216.18718,36.0009048 C216.372165,36.5237619 216.704902,37.1961429 217.037639,37.4949524 C217.259385,37.719 217.776872,38.0925714 218.627095,38.0925714 C219.181815,38.0925714 219.773295,37.9059048 220.105796,37.5694762 C220.401537,37.2709048 220.623518,36.7851905 220.623518,36.3370952 C220.623518,35.8887619 220.475531,35.5151905 220.142793,35.1418571 C219.699301,34.6935238 219.181815,34.4320952 218.590334,34.1706667 L217.259385,33.5356667 C216.556914,33.1994762 215.706691,32.7885238 215.11521,32.1911429 C214.301984,31.4068571 214.006244,30.5475714 214.006244,29.5392381 C214.006244,28.2692381 214.486733,27.036619 215.300195,26.1775714 C216.002431,25.4304286 217.185392,24.6832857 219.107821,24.6832857 C220.216787,24.6832857 221.104008,24.9075714 221.991228,25.5049524 C222.508715,25.841381 223.211186,26.4387619 223.765669,27.4475714 L221.067011,29.2401905 Z" id="Fill-11" fill="#000000" mask="url(#mask-2)"></path>
                    <polygon id="Fill-12" fill="#6A1B9A" mask="url(#mask-2)" points="23.5649547 0.0142380952 23.5649547 9.08519048 39.3551239 18.2959048 39.3551239 36.7180476 23.5649547 45.9292381 23.5649547 54.9999524 47.1299094 41.2535238 47.1299094 13.7606667"></polygon>
                    <polygon id="Fill-13" fill="#4A148C" mask="url(#mask-2)" points="7.77485619 36.718119 7.77485619 18.2962143 23.5650254 9.08502381 23.5650254 0.0143095238 7.0694864e-05 13.7607381 7.0694864e-05 41.2535952 23.5650254 55.0000238 23.5650254 45.9293095"></polygon>
                    <polygon id="Fill-14" fill="#6A1B9A" mask="url(#mask-2)" points="10.9569027 19.7719524 23.5005281 27.1269524 36.1730538 19.7719524 36.1690477 19.7695714 10.9609088 19.7695714"></polygon>
                    <polygon id="Fill-15" fill="#4A148C" mask="url(#mask-2)" points="10.9608852 19.7696429 36.1690242 19.7696429 23.5648369 12.4127381"></polygon>
                </g>
            </g>
        </g>
    </g>
</svg>