<svg xmlns="http://www.w3.org/2000/svg" viewBox="0 0 295 295"><defs><style>.cls-1{fill:#d5c2e1;}.cls-2{fill:#24292e;}</style></defs><title>Monitoring</title><g id="Layer_2" data-name="Layer 2"><g id="Layer_1-2" data-name="Layer 1"><polygon class="cls-1" points="33.31 0 61.85 0 61.85 123.71 33.31 123.71 33.31 0 33.31 0"/><polygon class="cls-1" points="80.89 28.55 109.44 28.55 109.44 123.71 80.89 123.71 80.89 28.55 80.89 28.55"/><polygon class="cls-1" points="128.47 47.58 157.02 47.58 157.02 123.71 128.47 123.71 128.47 47.58 128.47 47.58"/><polygon class="cls-1" points="275.97 161.77 180.81 161.77 180.81 0 275.97 0 275.97 161.77 275.97 161.77"/><path class="cls-2" d="M285.29,237l-47.39-7.89V181.05a52.38,52.38,0,0,1,47.58,52.1c0,1.3-.1,2.58-.19,3.86Zm-52.14,48.47a52.08,52.08,0,0,1-35.74-14.2l37.2-33.07,49.11,8.19a52.38,52.38,0,0,1-50.57,39.08Zm-147.5,0v-19h95.16V266a62.08,62.08,0,0,0,19.52,19.52ZM228.39,181.05v50l-37.3,33.16a52.22,52.22,0,0,1,37.3-83.12ZM280.73,66.61H276v9.52h4.76a4.76,4.76,0,0,1,4.75,4.76V200.33a61.81,61.81,0,0,0-109.42,56.61H14.27a4.76,4.76,0,0,1-4.75-4.76V80.89a4.76,4.76,0,0,1,4.75-4.76h19V66.61h-19A14.29,14.29,0,0,0,0,80.89V252.18a14.28,14.28,0,0,0,14.27,14.27H76.13v19H61.85V295h171.3A61.93,61.93,0,0,0,295,233.15V80.89a14.29,14.29,0,0,0-14.27-14.28Z"/><polygon class="cls-2" points="19.03 123.71 171.29 123.71 171.29 133.23 19.03 133.23 19.03 123.71 19.03 123.71"/><polygon class="cls-2" points="28.55 152.26 157.02 152.26 157.02 161.77 28.55 161.77 28.55 152.26 28.55 152.26"/><polygon class="cls-2" points="28.55 171.29 157.02 171.29 157.02 180.81 28.55 180.81 28.55 171.29 28.55 171.29"/><polygon class="cls-2" points="47.58 190.32 157.02 190.32 157.02 199.84 47.58 199.84 47.58 190.32 47.58 190.32"/><polygon class="cls-2" points="28.55 190.32 38.06 190.32 38.06 199.84 28.55 199.84 28.55 190.32 28.55 190.32"/><polygon class="cls-2" points="28.55 209.35 157.02 209.35 157.02 218.87 28.55 218.87 28.55 209.35 28.55 209.35"/><polygon class="cls-2" points="147.5 228.39 157.02 228.39 157.02 237.9 147.5 237.9 147.5 228.39 147.5 228.39"/><polygon class="cls-2" points="28.55 228.39 137.98 228.39 137.98 237.9 28.55 237.9 28.55 228.39 28.55 228.39"/><polygon class="cls-2" points="199.84 19.03 256.94 19.03 256.94 28.55 199.84 28.55 199.84 19.03 199.84 19.03"/><polygon class="cls-2" points="218.87 38.06 256.94 38.06 256.94 47.58 218.87 47.58 218.87 38.06 218.87 38.06"/><polygon class="cls-2" points="199.84 38.06 209.35 38.06 209.35 47.58 199.84 47.58 199.84 38.06 199.84 38.06"/><polygon class="cls-2" points="199.84 57.1 256.94 57.1 256.94 66.61 199.84 66.61 199.84 57.1 199.84 57.1"/><polygon class="cls-2" points="199.84 76.13 256.94 76.13 256.94 85.64 199.84 85.64 199.84 76.13 199.84 76.13"/><polygon class="cls-2" points="199.84 95.16 256.94 95.16 256.94 104.68 199.84 104.68 199.84 95.16 199.84 95.16"/><polygon class="cls-2" points="199.84 114.19 256.94 114.19 256.94 123.71 199.84 123.71 199.84 114.19 199.84 114.19"/><polygon class="cls-2" points="247.42 133.23 256.94 133.23 256.94 142.74 247.42 142.74 247.42 133.23 247.42 133.23"/><polygon class="cls-2" points="199.84 133.23 237.9 133.23 237.9 142.74 199.84 142.74 199.84 133.23 199.84 133.23"/><polygon class="cls-2" points="157.02 66.61 180.81 66.61 180.81 76.13 157.02 76.13 157.02 66.61 157.02 66.61"/></g></g></svg>