<svg xmlns="http://www.w3.org/2000/svg" viewBox="0 0 295 295"><defs><style>.cls-1{fill:#d5c2e1;}.cls-2{fill:#24292e;}</style></defs><title>Asset 19</title><g id="Layer_2" data-name="Layer 2"><g id="Layer_1-2" data-name="Layer 1"><rect class="cls-1" x="4.76" y="62.61" width="285.48" height="102.36"/><path class="cls-2" d="M295,0H0V247.42H38.06v33.31A14.3,14.3,0,0,0,52.34,295H242.66a14.3,14.3,0,0,0,14.28-14.27V247.42H295Zm-9.52,9.52V38.06H9.52V9.52ZM247.42,280.73a4.76,4.76,0,0,1-4.76,4.75H52.34a4.76,4.76,0,0,1-4.76-4.75V204.6a4.77,4.77,0,0,1,4.76-4.76H118a14.24,14.24,0,0,0,7.92-2.4l9.47-6.32a4.79,4.79,0,0,1,2.64-.8H242.66a4.77,4.77,0,0,1,4.76,4.76Zm9.52-42.83V195.08a14.29,14.29,0,0,0-14.28-14.27H138a14.2,14.2,0,0,0-7.91,2.39l-9.49,6.32a4.65,4.65,0,0,1-2.63.8H52.34A14.3,14.3,0,0,0,38.06,204.6v33.3H9.52V47.58h276V237.9Z"/><rect class="cls-2" x="19.03" y="19.03" width="9.52" height="9.52"/><rect class="cls-2" x="38.06" y="19.03" width="9.52" height="9.52"/><rect class="cls-2" x="57.1" y="19.03" width="9.52" height="9.52"/><path class="cls-2" d="M58.1,275V210.35H160.77V275Zm83.64-7.52h11.52V255.94H141.74Zm-57.1,0h49.59V255.94H84.64Zm-19,0H77.13V255.94H65.61Zm76.13-19h11.52V236.9H141.74Zm-19,0h11.52V236.9H122.71Zm-19,0h11.51V236.9H103.68Zm-19,0H96.16V236.9H84.64Zm-19,0H77.13V236.9H65.61Zm76.13-19h11.52V217.87H141.74Zm-19,0h11.52V217.87H122.71Zm-19,0h11.51V217.87H103.68Zm-19,0H96.16V217.87H84.64Zm-19,0H77.13V217.87H65.61Z"/><path class="cls-2" d="M172.29,275V210.35H236.9V275Zm45.58-7.52h11.52V255.94H217.87Zm-19,0h11.51V255.94H198.84Zm-19,0h11.51V255.94H179.81Zm38.06-19h11.52V236.9H217.87Zm-19,0h11.51V236.9H198.84Zm-19,0h11.51V236.9H179.81Zm38.06-19h11.52V217.87H217.87Zm-19,0h11.51V217.87H198.84Zm-19,0h11.51V217.87H179.81Z"/><polygon class="cls-2" points="90.09 113.79 113.19 88.24 122.13 93.8 104.05 113.79 122.13 133.78 113.19 139.34 90.09 113.79"/><polygon class="cls-2" points="172.87 133.78 190.95 113.79 172.87 93.8 181.81 88.24 204.91 113.79 181.81 139.34 172.87 133.78"/><polygon class="cls-2" points="130.18 140.9 150.75 83.98 161.62 86.68 141.05 143.6 130.18 140.9"/></g></g></svg>