<svg xmlns="http://www.w3.org/2000/svg" viewBox="0 0 295 295"><defs><style>.cls-1{fill:#d5c2e1;}.cls-2{fill:#24292e;}</style></defs><title>Service_Discovery</title><g id="Layer_2" data-name="Layer 2"><g id="Layer_1-2" data-name="Layer 1"><rect class="cls-1" x="66.61" y="57.1" width="76.13" height="76.13"/><path class="cls-1" d="M223.63,142.74A52.34,52.34,0,1,1,276,90.4a52.4,52.4,0,0,1-52.34,52.34Z"/><path class="cls-2" d="M142.74,57.1H114.19V85.65h28.55Zm-9.51,19h-9.52V66.61h9.52Z"/><path class="cls-2" d="M80.89,114.19h4.76v19h9.51V104.68H80.89Z"/><path class="cls-2" d="M142.74,104.68H114.19v28.55h28.55Zm-9.51,19h-9.52v-9.52h9.52Z"/><path class="cls-2" d="M66.61,85.65H95.16V57.1H66.61Zm9.52-19h9.52v9.52H76.13Z"/><path class="cls-2" d="M295,90.4A71.29,71.29,0,0,0,195.08,25V0H83.68L42.82,40.85V57.1H14.27A14.29,14.29,0,0,0,0,71.37v147.5a14.3,14.3,0,0,0,14.27,14.28H66.61v19h-19v9.51H190.32v-9.51h-19v-19h28.55v38.06a23.79,23.79,0,1,0,47.58,0V185.56H237.9V160.34A71.49,71.49,0,0,0,295,90.4Zm-9.52,0a61.86,61.86,0,1,1-61.85-61.85A61.93,61.93,0,0,1,285.48,90.4ZM185.56,30.13a71.19,71.19,0,0,0,0,120.54v15.86H52.34V47.58H90.4V9.52h95.16ZM59.07,38.06,80.89,16.24V38.06Zm102.7,214.12H76.13v-19h85.64ZM14.27,223.63a4.76,4.76,0,0,1-4.75-4.76V204.6H199.84v19Zm185.57-38.07v9.52H9.52V71.37a4.76,4.76,0,0,1,4.75-4.76H42.82V176.05H195.08V155.77a71.34,71.34,0,0,0,14.27,4.57v25.22Zm38.06,85.65a14.28,14.28,0,0,1-28.55,0V195.08H237.9Zm-9.51-85.65h-9.52v-24c1.58.11,3.15.24,4.76.24s3.18-.13,4.76-.24Z"/><path class="cls-2" d="M247.42,90.4h9.52a33.35,33.35,0,0,0-33.31-33.3v9.51A23.82,23.82,0,0,1,247.42,90.4Z"/><rect class="cls-2" x="218.87" y="266.45" width="9.52" height="9.52"/></g></g></svg>